<?xml version="1.0" encoding="UTF-8"?>
<svg version="1.1" xmlns="http://www.w3.org/2000/svg" width="933" height="738">
<path d="M0 0 C307.89 0 615.78 0 933 0 C933 243.54 933 487.08 933 738 C625.11 738 317.22 738 0 738 C0 494.46 0 250.92 0 0 Z " fill="#FEFEFE" transform="translate(0,0)"/>
<path d="M0 0 C7.29576613 1.39255287 13.8798467 3.70180094 20.75 6.5 C21.84546143 6.94432373 22.94092285 7.38864746 24.06958008 7.84643555 C47.84612403 17.60599153 70.51151821 29.37685689 91 45 C91.87398438 45.66257813 92.74796875 46.32515625 93.6484375 47.0078125 C100.43835356 52.29837801 106.73877738 58.10458251 113 64 C113.78375 64.71800781 114.5675 65.43601562 115.375 66.17578125 C127.05432296 77.25028213 134.91192928 90.7013487 142 105 C142.36351562 103.82824219 142.72703125 102.65648437 143.1015625 101.44921875 C148.4306958 84.62830154 155.43640398 69.06241616 171.4375 59.75 C179.10153142 56.10596997 188.2605496 57.08181736 196.0625 59.8125 C198.68059078 60.86538396 200.81778972 61.86331553 203.07836914 63.55908203 C207.16666418 65.57538665 210.65580004 65.33822309 215.1484375 65.22265625 C216.03802155 65.21366806 216.92760559 65.20467987 217.84414673 65.19541931 C220.68816632 65.16547392 223.53132954 65.11582184 226.375 65.0625 C242.36748667 64.78733963 257.70364048 64.60128488 273 70 C273 70.33 273 70.66 273 71 C272.40024353 71.00586624 271.80048706 71.01173248 271.18255615 71.01777649 C264.88703256 71.08217825 258.59199829 71.16671284 252.296875 71.26245117 C249.95384206 71.29551297 247.61073306 71.32360194 245.26757812 71.34643555 C241.88118354 71.38032834 238.49547438 71.43265965 235.109375 71.48828125 C234.07762146 71.49467117 233.04586792 71.5010611 231.98284912 71.50764465 C221.79161529 71.70934509 211.93576181 73.01679462 204.015625 79.8828125 C200.23860415 83.85014836 197.59620239 88.19586656 195 93 C194.51466797 93.87712646 194.51466797 93.87712646 194.01953125 94.77197266 C188.75339042 104.44421887 185.7212006 114.12460422 183.21850586 124.82373047 C177.18929815 150.51765043 169.02715133 170.32674492 145.91796875 184.734375 C137.72443146 189.60390866 128.85108927 192.89496814 119.9921875 196.3359375 C94.69440189 206.19733043 68.14462184 218.41812692 56.375 244.64453125 C47.09223699 267.29763757 54.13201811 298.95317262 62.8125 320.9375 C69.58683166 336.79047562 79.19949635 350.46600983 91 363 C91.82564453 363.92232422 91.82564453 363.92232422 92.66796875 364.86328125 C110.31972203 383.82257181 141.33852435 395.08970005 166.88085938 396.11572266 C173.25657856 396.24035925 179.625853 396.17342803 186 396 C186.00257813 395.16984375 186.00515625 394.3396875 186.0078125 393.484375 C187.30309737 352.20796382 204.16253208 310.19157726 234.375 281.75 C239.15494973 277.62791792 244.30196254 274.67799418 250 272 C250.70511719 271.65839844 251.41023437 271.31679688 252.13671875 270.96484375 C262.09648079 266.88608406 274.47331439 267.93557873 284.3203125 271.73828125 C295.35728113 276.93498806 303.66766078 284.45837755 308 296 C309.02884315 299.65453662 309.60695274 303.22674626 310 307 C310.10699219 307.86625 310.21398437 308.7325 310.32421875 309.625 C312.09428711 337.31673619 292.52109544 367.99679627 275 388 C260.05719716 404.59912433 243.16642876 415.7751334 222 423 C220.68 423 219.36 423 218 423 C222.26327481 436.28098512 227.53353547 450.22893194 239.78125 458.15234375 C244.25105116 460.35676841 248.15372326 460.38462514 253 460 C253.94875 459.67 254.8975 459.34 255.875 459 C261.26935527 457.27380631 266.7364493 457.05685387 272 459.25 C274.64663003 461.56580128 275.79103395 463.66358924 276.3359375 467.1484375 C276.43190945 472.61883865 275.68944498 475.69564752 272 480 C266.97762406 485.02237594 259.35236633 485.25269606 252.62695312 485.2734375 C251.78068359 485.26570313 250.93441406 485.25796875 250.0625 485.25 C249.22009766 485.25773437 248.37769531 485.26546875 247.50976562 485.2734375 C233.42124691 485.23005484 221.59023414 480.35359052 211.375 470.53125 C199.66071814 458.0462917 187.58610963 437.84115449 188 420 C187.32235596 420.02094727 186.64471191 420.04189453 185.9465332 420.06347656 C170.45118883 420.47630253 156.04729801 419.83830679 141 416 C140.27635254 415.81808105 139.55270508 415.63616211 138.80712891 415.44873047 C107.26509005 407.24237346 77.55617716 385.01963784 60.6484375 357.23046875 C50.16648961 339.06965088 44.86919382 318.63209247 42 298 C41.89905029 297.32428955 41.79810059 296.6485791 41.6940918 295.95239258 C39.17487675 276.94418078 39.13487204 255.29170045 45 237 C45.44107808 235.49768143 45.88114714 233.99506632 46.3203125 232.4921875 C49.47573765 222.08555355 53.8122974 212.53741185 59 203 C59.54269531 201.97648438 60.08539063 200.95296875 60.64453125 199.8984375 C68.01917029 186.58461228 77.93547666 172.71491522 89.625 162.875 C93.8621397 159.29885409 97.59867472 155.29901188 101.375 151.25 C101.99455566 150.58726074 102.61411133 149.92452148 103.25244141 149.24169922 C105.7349806 146.55929748 107.96589142 144.05116287 110 141 C108.51113281 140.61521484 108.51113281 140.61521484 106.9921875 140.22265625 C78.10925682 132.28495235 59.59424649 108.96346105 45 84 C37.58215833 70.86647289 31.19247497 57.44490799 25.52270508 43.47631836 C19.75077496 29.33889846 12.83634676 17.11925356 3.40625 5.09765625 C1 2 1 2 0 0 Z " fill="#233D78" transform="translate(62,74)"/>
<path d="M0 0 C7.33650988 5.1545046 13.53065383 12.36697333 19.8671875 18.69921875 C20.99432394 19.82313537 22.12153267 20.9469795 23.24880981 22.070755 C25.59537648 24.41137285 27.93990712 26.75400839 30.28320312 29.09790039 C33.28415024 32.09894976 36.29195835 35.09302152 39.30151176 38.08543682 C41.62462011 40.39743436 43.9431771 42.71395475 46.26047134 45.03177834 C47.36804001 46.13816875 48.47722647 47.24294213 49.58806992 48.34604454 C51.13625849 49.88443681 52.67798442 51.42903411 54.21826172 52.9753418 C55.53441971 54.28936226 55.53441971 54.28936226 56.87716675 55.62992859 C60.44684961 59.61535858 61.47444635 62.5311164 61.3125 67.9765625 C60.59450058 72.62560877 57.73216928 75.33756113 54.375 78.375 C49.69753565 80.62711246 46.08198735 81.03375244 41 80 C39.13183594 78.78393555 39.13183594 78.78393555 37.359375 77.13671875 C36.67439941 76.5032251 35.98942383 75.86973145 35.28369141 75.21704102 C30.35197717 70.42926071 25.50927383 65.55742407 20.68359375 60.66308594 C19.29367409 59.25517685 17.90079023 57.85019602 16.5078125 56.4453125 C15.68941895 55.61531738 14.87102539 54.78532227 14.02783203 53.93017578 C12.14739471 51.9517258 12.14739471 51.9517258 10 51 C9.96261719 51.76441406 9.92523437 52.52882813 9.88671875 53.31640625 C7.06689541 99.26293945 -19.17669265 145.48583062 -53 176 C-57.51340406 179.86749988 -62.23417395 183.451874 -67 187 C-67.56976562 187.43054688 -68.13953125 187.86109375 -68.7265625 188.3046875 C-77.70454141 195.06891819 -87.07514038 200.73743781 -97 206 C-97.63631348 206.34272949 -98.27262695 206.68545898 -98.92822266 207.03857422 C-114.09212741 215.16306692 -130.38560759 221.53762122 -147 226 C-147.6280957 226.18046875 -148.25619141 226.3609375 -148.90332031 226.546875 C-172.20616552 233.14433285 -195.95665779 231.86521014 -217.36328125 220.2109375 C-222.57794143 217.17660889 -226.78653419 213.28408256 -231 209 C-231.62003906 208.46117187 -232.24007812 207.92234375 -232.87890625 207.3671875 C-243.85758188 197.59199086 -249.48647327 182.45230408 -250.375 168.0859375 C-250.81834579 155.66410997 -249.04191491 144.01018991 -246 132 C-245.81808105 131.2682959 -245.63616211 130.5365918 -245.44873047 129.78271484 C-238.99802866 104.4468485 -227.51636096 77.915093 -205 63 C-192.28855098 56.19188436 -180.33661569 53.63315923 -166.125 57.625 C-155.60664793 61.28411157 -147.74766068 68.71360143 -142.0625 78.25 C-137.83211365 89.19923526 -139.41278357 102.31368874 -143.81445312 112.97216797 C-147.64990874 121.54086898 -152.15895458 129.63129655 -158 137 C-158.42796875 137.54398438 -158.8559375 138.08796875 -159.296875 138.6484375 C-168.49866578 150.22651491 -179.89382035 161.89887643 -195 165 C-196.73285648 165.07952806 -198.46847386 165.10774143 -200.203125 165.09765625 C-201.1828125 165.09443359 -202.1625 165.09121094 -203.171875 165.08789062 C-204.18765625 165.07951172 -205.2034375 165.07113281 -206.25 165.0625 C-207.796875 165.05573242 -207.796875 165.05573242 -209.375 165.04882812 C-211.91672573 165.03706088 -214.45833319 165.02062011 -217 165 C-215.1159572 175.87395891 -211.80963396 183.84913255 -202.56640625 190.46484375 C-186.69559469 199.9583429 -168.74490301 199.8150544 -151.2265625 195.51953125 C-102.27097908 182.09317391 -63.43274526 148.21738461 -38 105 C-29.31878161 89.73061968 -21.91959105 72.63971167 -21.98583984 54.81079102 C-21.9905127 53.55322998 -21.99518555 52.29566895 -22 51 C-22.79172607 51.80219971 -23.58345215 52.60439941 -24.39916992 53.4309082 C-27.3479689 56.4160055 -30.30346229 59.39439863 -33.26098633 62.37084961 C-34.53820371 63.65810216 -35.81361744 64.94714699 -37.0871582 66.23803711 C-38.92183632 68.09707253 -40.76298118 69.94948941 -42.60546875 71.80078125 C-43.17025436 72.37588943 -43.73503998 72.95099762 -44.31694031 73.54353333 C-48.51719457 77.74496219 -51.82427363 80.75825263 -57.9375 81.4375 C-62.20340057 81.26847375 -64.7139653 79.75109882 -68 77 C-70.8499099 73.75699908 -71.86662354 71.13369988 -72.375 66.8125 C-71.37379538 56.63358641 -61.7629089 49.3233138 -54.875 42.4765625 C-53.68299299 41.28253142 -52.49143134 40.08805558 -51.30029297 38.89315796 C-48.81376058 36.40222305 -46.32193479 33.91674398 -43.82617188 31.43505859 C-40.63161429 28.25764751 -37.45079063 25.06688014 -34.27377319 21.87194252 C-31.82049531 19.40781847 -29.36011027 16.95089102 -26.89752197 14.49607468 C-25.72157752 13.32212701 -24.5478452 12.14595901 -23.37640381 10.96751785 C-21.73986473 9.32334457 -20.0939894 7.68911892 -18.4453125 6.05712891 C-17.51219238 5.12639557 -16.57907227 4.19566223 -15.61767578 3.23672485 C-10.79852905 -0.8810904 -6.10782565 -2.09636842 0 0 Z " fill="#233D78" transform="translate(840,329)"/>
<path d="M0 0 C7.29576613 1.39255287 13.8798467 3.70180094 20.75 6.5 C21.84546143 6.94432373 22.94092285 7.38864746 24.06958008 7.84643555 C47.84612403 17.60599153 70.51151821 29.37685689 91 45 C91.87398438 45.66257813 92.74796875 46.32515625 93.6484375 47.0078125 C100.43835356 52.29837801 106.73877738 58.10458251 113 64 C113.78375 64.71800781 114.5675 65.43601562 115.375 66.17578125 C127.05432296 77.25028213 134.91192928 90.7013487 142 105 C142.36351562 103.82824219 142.72703125 102.65648437 143.1015625 101.44921875 C148.4306958 84.62830154 155.43640398 69.06241616 171.4375 59.75 C179.10153142 56.10596997 188.2605496 57.08181736 196.0625 59.8125 C198.68059078 60.86538396 200.81778972 61.86331553 203.07836914 63.55908203 C207.16666418 65.57538665 210.65580004 65.33822309 215.1484375 65.22265625 C216.03802155 65.21366806 216.92760559 65.20467987 217.84414673 65.19541931 C220.68816632 65.16547392 223.53132954 65.11582184 226.375 65.0625 C242.36748667 64.78733963 257.70364048 64.60128488 273 70 C273 70.33 273 70.66 273 71 C272.40024353 71.00586624 271.80048706 71.01173248 271.18255615 71.01777649 C264.88703256 71.08217825 258.59199829 71.16671284 252.296875 71.26245117 C249.95384206 71.29551297 247.61073306 71.32360194 245.26757812 71.34643555 C241.88118354 71.38032834 238.49547438 71.43265965 235.109375 71.48828125 C234.07762146 71.49467117 233.04586792 71.5010611 231.98284912 71.50764465 C221.79161529 71.70934509 211.93576181 73.01679462 204.015625 79.8828125 C200.23860415 83.85014836 197.59620239 88.19586656 195 93 C194.51466797 93.87712646 194.51466797 93.87712646 194.01953125 94.77197266 C188.75339042 104.44421887 185.7212006 114.12460422 183.21850586 124.82373047 C177.18929815 150.51765043 169.02715133 170.32674492 145.91796875 184.734375 C137.72443146 189.60390866 128.85108927 192.89496814 119.9921875 196.3359375 C100.14362375 203.86436845 100.14362375 203.86436845 82.29296875 215.171875 C80 217 80 217 76.5625 218.375 C72.28405565 220.32657111 70.22370338 222.62635693 67 226 C66.34 226 65.68 226 65 226 C64.73058594 226.57878906 64.46117188 227.15757812 64.18359375 227.75390625 C62.98714076 230.02440285 61.63694096 231.9143634 60.0625 233.9375 C56.37915208 238.78589715 53.77582353 243.12612218 52 249 C51.67 249 51.34 249 51 249 C50.67 247.02 50.34 245.04 50 243 C49.01 246.96 48.02 250.92 47 255 C46.67 255 46.34 255 46 255 C45.67 253.02 45.34 251.04 45 249 C43.515 257.415 43.515 257.415 42 266 C41.67 266 41.34 266 41 266 C39.28899884 244.42237427 48.89554927 221.57668327 59 203 C59.54269531 201.97648438 60.08539063 200.95296875 60.64453125 199.8984375 C68.01917029 186.58461228 77.93547666 172.71491522 89.625 162.875 C93.8621397 159.29885409 97.59867472 155.29901188 101.375 151.25 C101.99455566 150.58726074 102.61411133 149.92452148 103.25244141 149.24169922 C105.7349806 146.55929748 107.96589142 144.05116287 110 141 C108.51113281 140.61521484 108.51113281 140.61521484 106.9921875 140.22265625 C78.10925682 132.28495235 59.59424649 108.96346105 45 84 C37.58215833 70.86647289 31.19247497 57.44490799 25.52270508 43.47631836 C19.75077496 29.33889846 12.83634676 17.11925356 3.40625 5.09765625 C1 2 1 2 0 0 Z " fill="#31B24A" transform="translate(62,74)"/>
<path d="M0 0 C3.31841978 1.58394001 5.34184375 3.79834887 7.12109375 7.046875 C10.87970999 19.67582555 8.05872281 34.43776514 5.1875 46.9375 C4.91405762 48.13189697 4.64061523 49.32629395 4.35888672 50.55688477 C4.08705566 51.74338623 3.81522461 52.9298877 3.53515625 54.15234375 C-2.10640886 78.89370671 -1.32826251 103.77597214 -1 129 C-0.21214111 129.13486816 0.57571777 129.26973633 1.38745117 129.40869141 C5.30805621 130.29605758 6.59806528 132.34673091 8.82421875 135.55078125 C11.22340076 140.54841289 11.07285127 145.92335775 9.26171875 151.1171875 C6.70182222 156.02628948 3.22156159 159.25947947 -2 161 C-9.10795752 161.92053876 -14.24712962 161.30019511 -20 156.8828125 C-29.96535015 147.50136959 -32.52435193 134.1992338 -33 121 C-33.66 121 -34.32 121 -35 121 C-35.226875 121.54140625 -35.45375 122.0828125 -35.6875 122.640625 C-42.78124354 135.39247351 -56.81747385 145.61138606 -70 151 C-77.84654356 152.98305781 -85.4959467 153.22387333 -92.8125 149.5 C-102.39640388 143.59796998 -107.84767233 135.015833 -111.11328125 124.37109375 C-117.53738911 97.1252249 -105.7635074 68.02949072 -92 45 C-83.32819864 31.26357515 -72.60199731 21.03646972 -58 14 C-57.22140625 13.61972656 -56.4428125 13.23945313 -55.640625 12.84765625 C-46.54591148 9.13797047 -35.9821059 9.78876918 -27.0625 13.5 C-25.36203376 14.30654525 -23.66881589 15.12985391 -22 16 C-21.95875 14.989375 -21.9175 13.97875 -21.875 12.9375 C-21.21073765 8.20102061 -18.50501122 5.11100528 -15 2 C-10.36056552 -0.91788332 -5.2977158 -0.7513403 0 0 Z " fill="#233D78" transform="translate(765,152)"/>
<path d="M0 0 C1.27006851 1.08102267 2.51959498 2.1865393 3.75 3.3125 C4.46542969 3.90289062 5.18085938 4.49328125 5.91796875 5.1015625 C16.11109717 14.18941193 22.66285362 27.91376564 24.75 41.3125 C24.93046875 42.46492188 25.1109375 43.61734375 25.296875 44.8046875 C27.14390285 60.24445865 27.19417611 77.34264363 22.75 92.3125 C22.54600586 93.02019531 22.34201172 93.72789062 22.13183594 94.45703125 C16.70112234 113.01789809 8.0681559 131.08930555 -9.25 141.3125 C-18.24651263 145.97397316 -27.57668939 150.26294577 -37.81640625 147.66015625 C-52.33668398 142.84760332 -62.96716261 134.05796954 -70.0625 120.5 C-82.90193016 93.09332772 -80.8518042 60.04490851 -70.875 31.9375 C-65.07538761 18.48311971 -56.07796921 6.6230631 -43.25 -0.6875 C-42.59257812 -1.07679688 -41.93515625 -1.46609375 -41.2578125 -1.8671875 C-28.4505862 -8.9137337 -12.05542716 -8.6557967 0 0 Z " fill="#233D78" transform="translate(436.25,410.6875)"/>
<path d="M0 0 C7.4608121 6.03296702 11.72851348 12.46979266 13 22 C14.25474413 40.14553047 8.39917883 62.87941515 -3.72265625 77.0078125 C-6.41946805 79.55644782 -8.37655562 80.8441389 -12 81.75 C-16.8963405 80.52591487 -20.4432701 77.36542076 -23.203125 73.171875 C-24.33502083 70.08690401 -24.45505968 68.30111092 -24 65 C-22.45525134 61.67976428 -20.55762177 58.60668949 -18.625 55.5 C-13.71976365 47.49475387 -10.64302005 41.48536568 -10.75 31.875 C-10.74226562 31.17246094 -10.73453125 30.46992188 -10.7265625 29.74609375 C-10.74069977 26.00678606 -10.92872104 23.17267333 -13 20 C-15.74603467 19.49615665 -15.74603467 19.49615665 -19 20 C-20.78042556 21.42935573 -22.21452455 22.9588027 -23.703125 24.6875 C-24.13109375 25.120625 -24.5590625 25.55375 -25 26 C-25.66 26 -26.32 26 -27 26 C-27.26683594 26.53496094 -27.53367187 27.06992188 -27.80859375 27.62109375 C-28.69256921 29.3861464 -29.58133891 31.14879971 -30.47265625 32.91015625 C-30.99730469 33.95042969 -31.52195312 34.99070313 -32.0625 36.0625 C-32.58972656 37.10535156 -33.11695313 38.14820313 -33.66015625 39.22265625 C-37.20715724 46.575186 -37.2567896 56.53975868 -35.421875 64.51171875 C-34.47160216 66.57208305 -33.38692715 68.20227106 -32 70 C-31.401875 70.81082031 -30.80375 71.62164062 -30.1875 72.45703125 C-25.86774435 78.00759963 -21.11332211 83.1741189 -16.25 88.25 C-15.43607788 89.12821411 -15.43607788 89.12821411 -14.60571289 90.02416992 C-12.86574445 91.86269703 -12.86574445 91.86269703 -10 94 C-7.47929915 94.15326266 -7.47929915 94.15326266 -5 93 C-3.33904297 92.47986328 -3.33904297 92.47986328 -1.64453125 91.94921875 C-1.0314209 91.74707764 -0.41831055 91.54493652 0.21337891 91.33666992 C34.77759334 79.97057467 34.77759334 79.97057467 45.16015625 85.05859375 C47.90911367 87.24866148 49.80817236 89.42764227 50.23828125 92.953125 C50.41708799 98.486723 49.86787679 101.72497829 46 106 C40.81179418 109.13081386 35.34596143 110.27019193 29.5 111.5625 C22.50777557 113.10252214 22.50777557 113.10252214 15.65625 115.15234375 C12.92332975 116.02446683 10.84376072 116.0645498 8 116 C8.26216309 116.53367187 8.52432617 117.06734375 8.79443359 117.6171875 C9.99590321 120.07432837 11.18548651 122.53705029 12.375 125 C12.7875 125.83917969 13.2 126.67835938 13.625 127.54296875 C19.68143795 140.14426706 20.58087465 152.22772638 17.1171875 165.8515625 C15.2465657 171.12331483 12.32652963 175.53601185 9 180 C8.37867188 180.8353125 7.75734375 181.670625 7.1171875 182.53125 C-0.96655978 191.95731694 -12.7516795 198.16184195 -25 200 C-36.83662415 200.73827615 -47.37577752 200.55417691 -57.25 193.125 C-64.74094155 185.98929898 -68.41911621 175.83517669 -69.16796875 165.734375 C-69.34091742 148.16279027 -61.57778328 134.6723724 -50 122 C-38.42472429 110.21236214 -38.42472429 110.21236214 -34 108 C-35.51102973 104.49824857 -37.5762958 102.134517 -40.1875 99.375 C-54.93421964 83.23172104 -60.06730593 68.3133743 -59.19091797 46.73095703 C-57.96569939 29.20500439 -49.57108109 14.82639082 -37 3 C-25.86551164 -6.23391547 -12.3327291 -8.32257699 0 0 Z " fill="#233D78" transform="translate(525,129)"/>
<path d="M0 0 C12.106757 9.89537518 19.94844182 26.0198962 21.8046875 41.48046875 C21.93644513 43.56223925 22.03512761 45.6461476 22.1171875 47.73046875 C22.15505371 48.48344238 22.19291992 49.23641602 22.23193359 50.01220703 C23.37200865 74.98321816 17.91063964 100.98050146 1.9921875 120.91796875 C-6.41735815 129.94974536 -18.38728614 137.65938824 -30.9453125 138.16796875 C-40.92114403 137.66366131 -48.20080134 133.94683305 -55.8828125 127.73046875 C-56.5840625 127.17875 -57.2853125 126.62703125 -58.0078125 126.05859375 C-68.34331525 116.93428273 -74.42704213 101.17677785 -75.8828125 87.73046875 C-77.52309184 60.79038341 -76.0762199 30.73298993 -57.4453125 9.41796875 C-41.23953798 -7.65211375 -20.58549911 -14.8347458 0 0 Z " fill="#233D78" transform="translate(427.8828125,178.26953125)"/>
<path d="M0 0 C4.30517742 2.27443336 7.6690143 4.69664179 10 9 C11.92357544 18.14083047 8.46206522 25.90667742 5.1953125 34.23046875 C2.52256482 41.10342349 0.25369091 48.10636565 -2 55.125 C-2.21516266 55.7945874 -2.43032532 56.4641748 -2.65200806 57.15405273 C-7.65164217 72.76307754 -12.05785872 88.51052275 -16.18359375 104.37109375 C-32.33130703 166.40748447 -32.33130703 166.40748447 -49.06640625 178.4921875 C-53.54840191 181.03578582 -57.90991311 181.98836639 -63 181 C-72.75593249 177.45238819 -78.15056106 170.92468808 -83 162 C-90.64845375 145.3632174 -94.84885468 128.10280801 -98.125 110.1875 C-98.46142288 108.39763276 -98.79866015 106.60791839 -99.13671875 104.81835938 C-101.18522073 93.89112542 -103.01774642 82.93900796 -104.70053101 71.9498291 C-107.14677318 54.78868028 -107.14677318 54.78868028 -112.25 38.3125 C-114.41056935 32.67839991 -114.45408584 27.84430656 -113 22 C-110.72301817 17.44603633 -108.50097138 15.26983084 -104 13 C-98.60967354 12.11874772 -92.83400308 11.91771677 -88.0625 14.875 C-75.88311942 25.57630042 -75.45987665 47.81723724 -73.65234375 62.7421875 C-73.06715447 67.57148537 -72.30548275 72.35025357 -71.4609375 77.140625 C-70.89598285 80.64525894 -70.47985037 84.16306702 -70.0625 87.6875 C-68.20399816 103.05368878 -66.14041084 119.69966541 -60 134 C-56.67607824 127.30928741 -54.79159715 120.7125322 -53.1875 113.4375 C-50.26412115 100.7979133 -46.77095514 88.40987054 -43 76 C-42.54315882 74.48929877 -42.08646199 72.97855388 -41.62988281 71.46777344 C-22.31949186 7.6435744 -22.31949186 7.6435744 -11 0 C-7.49636723 -1.75181639 -3.73058481 -0.81154374 0 0 Z " fill="#233D78" transform="translate(583,373)"/>
<path d="M0 0 C2.6484375 1.60546875 2.6484375 1.60546875 4.0234375 3.73046875 C7.01172068 17.47657139 1.32458547 32.09453743 -2.57666016 45.16235352 C-5.77730081 55.90591065 -8.5911775 66.74172144 -11.3515625 77.60546875 C-10.24868896 77.74795044 -10.24868896 77.74795044 -9.12353516 77.89331055 C-5.73847168 78.34137276 -2.35780597 78.81696846 1.0234375 79.29296875 C2.17972656 79.44185547 3.33601562 79.59074219 4.52734375 79.74414062 C12.3777716 80.87513447 20.9133229 82.32978693 26.38427734 88.5925293 C28.24717966 91.55885405 28.25747661 93.15424715 27.6484375 96.60546875 C25.65489184 99.75385153 23.48373539 103.02542459 19.81689453 104.18432617 C11.39237362 105.82047778 2.42763203 104.14545269 -5.9765625 103.10546875 C-7.17152344 102.96238281 -8.36648438 102.81929688 -9.59765625 102.671875 C-12.51629941 102.32163782 -15.43418428 101.96606514 -18.3515625 101.60546875 C-18.53332031 103.45398438 -18.53332031 103.45398438 -18.71875 105.33984375 C-20.23120802 120.38065236 -20.23120802 120.38065236 -21.4140625 126.79296875 C-23.40397536 138.19971335 -23.46979716 149.80546665 -23.6015625 161.35546875 C-23.62299316 162.38438232 -23.64442383 163.4132959 -23.66650391 164.47338867 C-23.71257127 175.14480839 -21.38210912 184.238244 -16.3515625 193.60546875 C-16.3515625 194.26546875 -16.3515625 194.92546875 -16.3515625 195.60546875 C-15.0521875 195.54359375 -13.7528125 195.48171875 -12.4140625 195.41796875 C-6.22576525 195.42772947 -0.966279 196.88358227 4.2109375 200.29296875 C5.89694297 203.00523842 6.39392715 205.24745227 6.2265625 208.4453125 C4.73010924 214.03678989 0.17936608 217.64488611 -4.5390625 220.60546875 C-15.51898102 223.48544738 -24.71273645 221.12014136 -34.5390625 215.91796875 C-47.62267336 205.16033315 -52.90851929 191.03622133 -54.68530273 174.49926758 C-54.86406609 171.36077804 -54.91966148 168.24906474 -54.9140625 165.10546875 C-54.91599609 163.92509033 -54.91792969 162.74471191 -54.91992188 161.52856445 C-54.59383832 141.77951143 -51.20747697 122.11455469 -48.3515625 102.60546875 C-52.10201887 102.91264132 -55.85182672 103.22713079 -59.6015625 103.54296875 C-60.66503906 103.62998047 -61.72851562 103.71699219 -62.82421875 103.80664062 C-63.84902344 103.89365234 -64.87382813 103.98066406 -65.9296875 104.0703125 C-67.34362793 104.18814087 -67.34362793 104.18814087 -68.78613281 104.30834961 C-71.06353336 104.57211022 -73.14002764 105.02470046 -75.3515625 105.60546875 C-80.29485612 105.98855559 -84.81007049 106.26610818 -89.4140625 104.29296875 C-92.48561243 101.61774784 -93.31049947 99.91344145 -93.8515625 95.85546875 C-93.71856527 91.59955753 -92.28579347 89.22180411 -89.30029297 86.24804688 C-83.32743829 81.21354847 -75.77043026 79.80730776 -68.2265625 78.85546875 C-66.86591675 78.6711731 -66.86591675 78.6711731 -65.4777832 78.4831543 C-57.73340457 77.50393293 -50.14823854 77.28210431 -42.3515625 77.60546875 C-42.25230469 76.54070312 -42.15304687 75.4759375 -42.05078125 74.37890625 C-41.31420951 68.52489629 -39.71954123 62.91120324 -38.1640625 57.23046875 C-37.85307617 56.07869141 -37.54208984 54.92691406 -37.22167969 53.74023438 C-35.40287918 47.10522053 -33.39661297 40.58944388 -31.1015625 34.10546875 C-28.70506895 27.33006234 -27.2728344 20.64452891 -26.28808594 13.52734375 C-25.55037735 8.21973741 -24.89604156 4.19285001 -21.1015625 0.29296875 C-15.208204 -3.29556142 -6.10658329 -2.54085109 0 0 Z " fill="#233D78" transform="translate(635.3515625,98.39453125)"/>
<path d="M0 0 C7.20924008 5.07482739 11.05950882 14.04083868 12.53515625 22.45703125 C14.59436268 39.27388379 12.55246858 58.06875149 2.88671875 72.328125 C-0.95990339 76.62646057 -4.47591721 79.82576179 -10.34765625 80.63671875 C-15.28147952 80.88953889 -18.32135854 80.73297538 -22.17578125 77.453125 C-25.20562492 74.50170082 -26.32965645 72.3737252 -26.61328125 68.140625 C-26.59636626 62.31341039 -24.41229428 57.92287257 -21.77929688 52.85864258 C-18.39295524 46.29980573 -16.8193352 40.26175119 -16.98828125 32.828125 C-17.00632812 31.7865625 -17.024375 30.745 -17.04296875 29.671875 C-17.06617188 28.8984375 -17.089375 28.125 -17.11328125 27.328125 C-23.35850116 28.11824814 -26.1917779 31.67955792 -30.11328125 36.328125 C-37.60796465 46.36277271 -42.57491645 59.92131279 -44.11328125 72.328125 C-44.27763672 73.60623047 -44.27763672 73.60623047 -44.4453125 74.91015625 C-45.23639668 82.78935467 -45.31026058 90.72800919 -45.42578125 98.640625 C-45.45559082 99.76210938 -45.48540039 100.88359375 -45.51611328 102.0390625 C-45.56471205 108.97938047 -44.85279548 113.43410165 -41.11328125 119.328125 C-36.07077885 124.3706274 -30.47351041 125.62283501 -23.48828125 125.703125 C-17.34328109 125.63830432 -12.51601316 124.36608067 -6.80078125 122.23046875 C-1.7851345 120.54643619 2.11256918 120.67987804 7.13671875 122.515625 C10.36444225 124.64298821 12.03079368 125.90180179 13.88671875 129.328125 C14.5363736 134.17498817 14.55424345 138.62222854 12.76171875 143.203125 C6.80891663 149.94963407 -0.31610619 153.49320268 -9.11328125 155.328125 C-13.44314313 155.58255064 -17.77671588 155.55949314 -22.11328125 155.578125 C-23.28246094 155.59875 -24.45164062 155.619375 -25.65625 155.640625 C-39.54229651 155.70227227 -50.56724885 152.80590335 -61.14453125 143.55078125 C-74.90057698 129.28190048 -76.6851766 108.42000687 -76.51782227 89.70483398 C-76.29170213 79.97904626 -75.25078617 70.80149585 -73.11328125 61.328125 C-72.95230957 60.54066895 -72.79133789 59.75321289 -72.62548828 58.94189453 C-68.41967072 38.38146653 -59.97303575 15.8877725 -42.11328125 3.328125 C-28.30903617 -5.1713459 -14.82019748 -7.80316881 0 0 Z " fill="#233D78" transform="translate(331.11328125,156.671875)"/>
<path d="M0 0 C15.19938542 -0.47580685 29.71421456 1.71925998 44.56185913 4.69308472 C46.01138939 4.97920627 47.46312937 5.25436863 48.91690063 5.51809692 C60.51623949 7.64653658 60.51623949 7.64653658 63.91552734 10.74731445 C65.22040278 12.78527997 66.12299321 14.74778069 67 17 C67.67819926 18.30702769 68.36830997 19.60794502 69.0703125 20.90234375 C69.75558102 22.247206 70.44046415 23.59226467 71.125 24.9375 C78.1133991 38.37007681 86.2302458 52.56932241 97.22265625 63.13671875 C99 65 99 65 99 67 C99.59296875 67.26683594 100.1859375 67.53367187 100.796875 67.80859375 C103.03818625 69.02065037 104.44578186 70.27935917 106.25 72.0625 C110.19622161 75.60741094 114.45549563 78.17428496 119.0625 80.75 C119.73506836 81.12648682 120.40763672 81.50297363 121.10058594 81.89086914 C125.30840686 84.19488258 129.56297236 86.17672206 134 88 C127 95 127 95 123.25 95.375 C94.44809571 94.54815107 70.11881307 71.28365396 51.0625 52.25 C50.56609009 51.75467773 50.06968018 51.25935547 49.55822754 50.74902344 C45.10198713 46.2916768 40.65542403 41.84188164 36.5546875 37.05078125 C32.18472719 31.95780889 27.40909337 27.25971286 22.6574707 22.52709961 C21.06541034 20.94040054 19.4787701 19.34842258 17.89257812 17.75585938 C12.89064425 12.75177946 7.86250936 7.84272734 2.42358398 3.30688477 C1 2 1 2 0 0 Z " fill="#32B34B" transform="translate(29,130)"/>
<path d="M0 0 C3.26169695 2.62353885 5.50047277 5.10255036 7 9 C7.22072643 11.57131958 7.33329357 13.99374043 7.3125 16.5625 C7.30512817 17.63322754 7.30512817 17.63322754 7.29760742 18.72558594 C7.16321904 24.84818294 6.11794633 30.23781404 4 36 C3.67128906 36.928125 3.34257812 37.85625 3.00390625 38.8125 C-7.18218133 65.31747528 -27.74829912 87.49854819 -52.75 100.5625 C-56 102 -56 102 -58 102 C-56.82211907 78.64546424 -51.46854913 55.33578723 -40.01171875 34.81445312 C-38.99317384 32.98775771 -38.0107882 31.14472893 -37.03125 29.296875 C-30.31798804 16.84797819 -17.1581413 -5.41836041 0 0 Z " fill="#FCFCFD" transform="translate(335,369)"/>
<path d="M0 0 C6.27834206 3.79590137 9.70740275 9.20426139 11.59130859 16.19384766 C12.96567623 22.71022255 13.34954425 28.97421467 13.3125 35.625 C13.30512817 37.19942871 13.30512817 37.19942871 13.29760742 38.80566406 C13.04572762 55.66481889 9.97609008 72.32924112 -2 85 C-5.33700512 87.82361972 -8.50434928 88.79485022 -12.9453125 88.59375 C-17.347705 87.32157574 -19.67610491 83.74898089 -22 80 C-26.51054862 70.41684063 -28.38026461 60.46458427 -28.3125 49.9375 C-28.30758545 49.02427979 -28.3026709 48.11105957 -28.29760742 47.17016602 C-28.01546238 30.60463504 -24.76370248 15.36389624 -13.18359375 2.9609375 C-8.72310929 -1.04472118 -5.87548776 -1.59335261 0 0 Z " fill="#FCFCFD" transform="translate(417,438)"/>
<path d="M0 0 C6.10862343 2.99763377 8.75136282 8.52328248 11.06640625 14.65625 C12.6721427 20.40733955 12.89846344 26.0567267 13 32 C13.05027344 32.98742187 13.10054688 33.97484375 13.15234375 34.9921875 C13.71488158 51.5983043 9.64964553 67.75826527 -1.81640625 80.0390625 C-4.79541719 82.71431025 -6.79824758 83.94658878 -10.8125 84.125 C-15.73175985 82.38879064 -18.27755945 79.38762264 -21 75 C-22.6828687 70.74213944 -23.9070857 66.4421678 -25 62 C-25.176521 61.36795654 -25.35304199 60.73591309 -25.53491211 60.0847168 C-28.86323631 45.16578746 -26.48799791 23.3190062 -18.359375 10.390625 C-13.50874337 3.93717596 -8.87075703 -2.12898169 0 0 Z " fill="#FCFCFD" transform="translate(407,202)"/>
<path d="M0 0 C2 2 2 2 2.24609375 5.1484375 C1.98872987 9.17638642 1.22967071 12.78592606 0.0625 16.625 C-0.15494873 17.34792236 -0.37239746 18.07084473 -0.59643555 18.81567383 C-6.71878203 38.31426333 -16.87980767 66.7746884 -36 77 C-38.44121459 77.69021058 -40.44352792 77.89348033 -43 78 C-47.74019081 69.59120406 -46.9647511 60.88999365 -44.61230469 51.76000977 C-38.93824332 31.9754537 -27.76581169 10.53650182 -9.4375 0.03125 C-5.9470889 -1.44546239 -3.55142 -1.18380667 0 0 Z " fill="#FBFCFC" transform="translate(727,194)"/>
<path d="M0 0 C5.7684781 2.71521937 9.70820245 11.55325418 12.06640625 17.28515625 C13.59473368 22.92086364 13.99252956 26.83216935 11.06640625 31.97265625 C5.88476732 39.46208395 -0.93846985 45.00569182 -9.93359375 46.97265625 C-12.87275115 47.34306091 -15.78576747 47.51215605 -18.74609375 47.59765625 C-19.47562256 47.6330249 -20.20515137 47.66839355 -20.95678711 47.70483398 C-23.83678426 47.69721056 -26.20151606 47.53622301 -28.53198242 45.7421875 C-30.99608061 42.96771742 -32.64250904 40.46319352 -32.62109375 36.72265625 C-31.95854875 26.31372552 -22.74584429 17.21333171 -15.40429688 10.59375 C-3.18013898 -0.04497166 -3.18013898 -0.04497166 0 0 Z " fill="#FBFCFC" transform="translate(509.93359375,256.02734375)"/>
<path d="M0 0 C2.4375 1.5 2.4375 1.5 4 4 C4.19194094 14.74869279 -1.70877047 25.41260834 -9 33 C-15.30286892 38.78524201 -21.4371753 44.05879013 -30.3125 44.25 C-34 44 -34 44 -36 43 C-35.07543624 29.43973159 -26.84063249 15.89204921 -17.109375 6.7265625 C-12.1898914 2.69987407 -6.61239198 -1.38398902 0 0 Z " fill="#FAFAFB" transform="translate(664,417)"/>
<path d="M0 0 C17 0 17 0 24 3 C27.2390752 6.55253409 27.521557 10.08253639 27.3515625 14.71875 C26.60681333 19.55134462 24.44568211 22.91573841 20.5 25.875 C15.51519158 28.11816379 11.42629356 28.09043823 6 28 C6 32.62 6 37.24 6 42 C4.02 42 2.04 42 0 42 C0 28.14 0 14.28 0 0 Z " fill="#37B34E" transform="translate(500,627)"/>
<path d="M0 0 C17 0 17 0 24 3 C27.2390752 6.55253409 27.521557 10.08253639 27.3515625 14.71875 C26.60681333 19.55134462 24.44568211 22.91573841 20.5 25.875 C15.51519158 28.11816379 11.42629356 28.09043823 6 28 C6 32.62 6 37.24 6 42 C4.02 42 2.04 42 0 42 C0 28.14 0 14.28 0 0 Z " fill="#37B34E" transform="translate(439,627)"/>
<path d="M0 0 C7 0 7 0 8.79296875 1.484375 C9.25316406 2.23203125 9.71335937 2.9796875 10.1875 3.75 C10.74953125 4.63945313 11.3115625 5.52890625 11.890625 6.4453125 C12.59479025 7.62959042 13.29775324 8.81458346 14 10 C15.03543629 11.70634977 16.07198868 13.41202256 17.109375 15.1171875 C20.10945258 20.05752211 23.05007384 25.02821433 26 30 C26.33 20.1 26.66 10.2 27 0 C28.98 0 30.96 0 33 0 C33 13.86 33 27.72 33 42 C26 42 26 42 24.10717773 40.32275391 C23.63739502 39.54851074 23.1676123 38.77426758 22.68359375 37.9765625 C22.14669922 37.11933594 21.60980469 36.26210938 21.05664062 35.37890625 C20.52232422 34.47011719 19.98800781 33.56132813 19.4375 32.625 C18.89931641 31.75488281 18.36113281 30.88476562 17.80664062 29.98828125 C16.17699393 27.34084077 14.58669543 24.67341594 13 22 C11.02 18.7 9.04 15.4 7 12 C6.67 21.9 6.34 31.8 6 42 C4.02 42 2.04 42 0 42 C0 28.14 0 14.28 0 0 Z " fill="#3DB556" transform="translate(606,627)"/>
<path d="M0 0 C1.98 0 3.96 0 6 0 C6 5.94 6 11.88 6 18 C12.93 18 19.86 18 27 18 C27 12.06 27 6.12 27 0 C28.98 0 30.96 0 33 0 C33 13.86 33 27.72 33 42 C31.02 42 29.04 42 27 42 C27 36.06 27 30.12 27 24 C20.07 24 13.14 24 6 24 C6 29.94 6 35.88 6 42 C4.02 42 2.04 42 0 42 C0 28.14 0 14.28 0 0 Z " fill="#37B34C" transform="translate(324,627)"/>
<path d="M0 0 C1.66869141 -0.02126953 1.66869141 -0.02126953 3.37109375 -0.04296875 C6.52817188 0.18502098 8.71957747 0.84308991 11.5625 2.1875 C11.5625 4.1675 11.5625 6.1475 11.5625 8.1875 C8.5625 9.1875 8.5625 9.1875 5.4375 7.6875 C1.05193087 5.68054464 -2.85127369 5.7704076 -7.4375 7.1875 C-10.97441935 9.91387533 -12.65896426 11.84774139 -13.4375 16.1875 C-14.25227408 24.31103071 -14.25227408 24.31103071 -11.6875 31.8125 C-8.78162889 34.87980839 -6.89109543 36.08599194 -2.640625 36.3828125 C-1.66609375 36.35960937 -0.6915625 36.33640625 0.3125 36.3125 C2.91125 36.250625 2.91125 36.250625 5.5625 36.1875 C5.5625 32.5575 5.5625 28.9275 5.5625 25.1875 C7.5425 25.1875 9.5225 25.1875 11.5625 25.1875 C11.5625 30.1375 11.5625 35.0875 11.5625 40.1875 C3.51369841 42.4871576 -5.01297192 44.10997667 -13 40.625 C-17.44840045 37.98786809 -19.4887572 34.23886199 -21.015625 29.328125 C-22.38230311 22.39349903 -22.41282763 15.1385478 -18.77734375 8.94140625 C-13.42181304 1.93081357 -8.66572233 0.05009088 0 0 Z " fill="#3AB44F" transform="translate(693.4375,626.8125)"/>
<path d="M0 0 C1.56427734 0.00966797 1.56427734 0.00966797 3.16015625 0.01953125 C5.9375 0.1875 5.9375 0.1875 8.9375 1.1875 C8.9375 3.4975 8.9375 5.8075 8.9375 8.1875 C7.9165625 7.7234375 7.9165625 7.7234375 6.875 7.25 C2.59923028 5.703445 -1.21505103 4.33483124 -5.5 6.3125 C-7.260552 8.10030033 -7.260552 8.10030033 -7.44921875 10.61328125 C-7.33080225 13.33390259 -7.33080225 13.33390259 -5.0859375 14.84765625 C-4.21195312 15.31042969 -3.33796875 15.77320313 -2.4375 16.25 C-1.52742188 16.75273438 -0.61734375 17.25546875 0.3203125 17.7734375 C1.18398438 18.24007812 2.04765625 18.70671875 2.9375 19.1875 C6.31296932 21.22371428 8.70094722 22.83267083 10.9375 26.1875 C11.39920489 31.17391282 11.12288905 34.25885351 7.9375 38.1875 C3.23448627 42.64933353 -0.99569286 42.60277422 -7.16015625 42.5234375 C-10.11398309 42.18154099 -12.37072262 41.42226027 -15.0625 40.1875 C-15.0625 37.8775 -15.0625 35.5675 -15.0625 33.1875 C-10.34821429 35.02083333 -10.34821429 35.02083333 -8.1875 36.28125 C-5.60381583 37.38311531 -4.07013251 37.21803419 -1.3125 36.8125 C-0.51328125 36.70164062 0.2859375 36.59078125 1.109375 36.4765625 C1.71265625 36.38117187 2.3159375 36.28578125 2.9375 36.1875 C2.9375 33.5475 2.9375 30.9075 2.9375 28.1875 C1.96167969 27.65640625 0.98585938 27.1253125 -0.01953125 26.578125 C-1.30494561 25.86504842 -2.59008768 25.15148083 -3.875 24.4375 C-4.51759766 24.08945312 -5.16019531 23.74140625 -5.82226562 23.3828125 C-9.33507019 21.41709803 -12.13404 19.78589456 -14.0625 16.1875 C-14.95097788 11.71309338 -14.64873322 8.17153434 -12.3125 4.25 C-8.29874437 0.57072401 -5.4303781 -0.07402002 0 0 Z " fill="#3AB451" transform="translate(278.0625,626.8125)"/>
<path d="M0 0 C1.98 0 3.96 0 6 0 C6 13.86 6 27.72 6 42 C4.02 42 2.04 42 0 42 C0 28.14 0 14.28 0 0 Z " fill="#3AB34D" transform="translate(561,627)"/>
<path d="M0 0 C1.98 0 3.96 0 6 0 C6 13.86 6 27.72 6 42 C4.02 42 2.04 42 0 42 C0 28.14 0 14.28 0 0 Z " fill="#3AB34D" transform="translate(395,627)"/>
<path d="M0 0 C9 0 9 0 12.0625 0.9375 C14.33212892 3.35355659 14.36590241 4.15129382 14.5 7.375 C14.28332754 11.28784966 13.52103214 13.89719121 11 17 C9 18 9 18 0 18 C0 12.06 0 6.12 0 0 Z " fill="#F4FBF7" transform="translate(506,632)"/>
<path d="M0 0 C9 0 9 0 12.0625 0.9375 C14.33212892 3.35355659 14.36590241 4.15129382 14.5 7.375 C14.28332754 11.28784966 13.52103214 13.89719121 11 17 C9 18 9 18 0 18 C0 12.06 0 6.12 0 0 Z " fill="#F4FBF7" transform="translate(445,632)"/>
<path d="M0 0 C0.66 0.33 1.32 0.66 2 1 C1.14277344 1.73863281 0.28554687 2.47726562 -0.59765625 3.23828125 C-6.98961254 8.86686547 -12.31838213 14.10862809 -16.53515625 21.625 C-18.08856306 24.14359024 -19.83858345 25.9919743 -22 28 C-22 21.81860273 -16.59597425 15.13573034 -12.6328125 10.58203125 C-8.68634443 6.75830023 -4.31187957 3.39815377 0 0 Z " fill="#2D4C7A" transform="translate(138,291)"/>
</svg>
